HIERARCHY
ROOT Hips
{
	OFFSET	0.00	0.00	0.00
	CHANNELS 6 Xposition Yposition Zposition Zrotation Xrotation Yrotation
	JOINT Spine
	{
		OFFSET	 0.00	0.01	 0.00
		CHANNELS 3 Zrotation Xrotation Yrotation
		JOINT Spine1
		{
			OFFSET	 0.00	 2.45913012437421	 0.00
			CHANNELS 3 Zrotation Xrotation Yrotation
            JOINT Neck
            {
                OFFSET	 0.00	 2.48462964506057	 0.00
                CHANNELS 3 Zrotation Xrotation Yrotation
                JOINT Head
                {
                    OFFSET	 0.00	 0.927524780924562	 0.00
                    CHANNELS 3 Zrotation Xrotation Yrotation
                    End Site 
                    {
                        OFFSET	 0.00	 1.14999962169752	 0.00
                    }
                }
            }
			JOINT LeftShoulder
			{
				OFFSET	 0.00	 2.48462964506057	 0.00
				CHANNELS 3 Zrotation Xrotation Yrotation
				JOINT LeftUpArm
				{
					OFFSET	 0.00	 1.24881979654096	 0.00
					CHANNELS 3 Zrotation Xrotation Yrotation
					JOINT LeftForeArm
					{
						OFFSET	 0.00	2.59758046908119	 0.00
						CHANNELS 3 Zrotation Xrotation Yrotation
						JOINT LeftHand
						{
							OFFSET	 0.00	2.45542024364365	 0.00
							CHANNELS 3 Zrotation Xrotation Yrotation
							JOINT LeftHandThumb 
							{
								OFFSET	 0.00	0.00	 0.00
								CHANNELS 3 Zrotation Xrotation Yrotation
								End Site
								{
									OFFSET	 0.00	0.00	1.00000003353624
								}
							}
							JOINT L_Wrist_End 
							{
								OFFSET	 0.00	0.99999967115358	 0.00
								CHANNELS 3 Zrotation Xrotation Yrotation
								End Site 
								{
									OFFSET	 0.00	 0.00	 0.00
								}
							}
						}
					}
				}
			}
			JOINT RightShoulder
			{
				OFFSET	 0.00	 2.48462964506057	 0.00
				CHANNELS 3 Zrotation Xrotation Yrotation
				JOINT RightUpArm
				{
					OFFSET	 0.00	 1.24881979654096	 0.00
					CHANNELS 3 Zrotation Xrotation Yrotation
					JOINT RightForeArm
					{
						OFFSET	 0.00	2.59758046908119	 0.00
						CHANNELS 3 Zrotation Xrotation Yrotation
						JOINT RightHand
						{
							OFFSET	 0.00	2.45542024364365	 0.00
							CHANNELS 3 Zrotation Xrotation Yrotation
							JOINT RightHandThumb 
							{
								OFFSET	 0.00	0.00	 0.00
								CHANNELS 3 Zrotation Xrotation Yrotation
								End Site
								{
									OFFSET	 0.00	0.00	1.00000003353624
								}
							}
							JOINT R_Wrist_End 
							{
								OFFSET	 0.00	0.99999967115358	 0.00
								CHANNELS 3 Zrotation Xrotation Yrotation
								End Site 
								{
									OFFSET	 0.00	 0.00	 0.00
								}
							}
						}
					}
				}
			}
		}
	}
	JOINT LeftUpLeg
	{
		OFFSET	 1.2719394002717	 0.00	 0.00
		CHANNELS 3 Zrotation Xrotation Yrotation
		JOINT LeftLowLeg
		{
			OFFSET	 0.00	-4.3429100912261	 0.00
			CHANNELS 3 Zrotation Xrotation Yrotation
			JOINT LeftFoot
			{
				OFFSET	 0.00	-4.48767017425826	 0.00
				CHANNELS 3 Zrotation Xrotation Yrotation
				JOINT LeftToeBase
                {
                    OFFSET	 0.00	0.00	 1.51507020887566
                    CHANNELS 3 Zrotation Xrotation Yrotation
                    End Site 
                    {
                        OFFSET	 0.00	0.00	 0.75000010571191
                    }
                }
			}
		}
	}
	JOINT RightUpLeg
	{
		OFFSET	 -1.2719393604653	 0.00	 0.00
		CHANNELS 3 Zrotation Xrotation Yrotation
		JOINT RightLowLeg
		{
			OFFSET	 0.00	-4.3429100912261	 0.00
			CHANNELS 3 Zrotation Xrotation Yrotation
			JOINT RightFoot
			{
				OFFSET	 0.00	-4.48767017425826	 0.00
				CHANNELS 3 Zrotation Xrotation Yrotation
				JOINT RightToeBase
                {
                    OFFSET	 0.00	0.00	 1.51507020887566
                    CHANNELS 3 Zrotation Xrotation Yrotation
                    End Site 
                    {
                        OFFSET	 0.00	0.00	 0.749999965609858
                    }
                }   
			}
		}
	}
}
MOTION 
Frames:	11 
Frame Time: 0.02 
  -0.3246480178833008 0.3944540023803711 7.319849853515625 -166.497 73.0342 526.167 -4.26265 38.7208 -4.39761 5.89977 -16.3349 7.40155 15.6153 -9.44043 -13.8219 84.4457 -78.0522 -266.546 -112.0242 5.15793 10.1602 -75.6586 47.5631 -291.254 0.0 76.9514 0.0 18.7484 -35.9265 95.0864 0.0 0.0 0.0 0.0 0.0 0.0 119.1558 5.71972 -10.5956 55.8222 41.9016 -45.1462 0.0 76.063 0.0 -10.1652 -11.2954 -84.8547 0.0 0.0 0.0 0.0 0.0 0.0 -89.7009 -70.6653 -80.0309 0.0 107.498 0.0 9.59594 14.266361 1.39875 0.0 -14.45144 0.0 61.6666 -63.5393 66.8669 0.0 71.6435 0.0 20.549 9.15048 -4.82282 0.0 -28.0374 0.0 
  -0.32575401306152346 0.3961460113525391 7.318590087890625 -166.472 73.0786 526.11 -4.30401 38.7637 -4.37122 5.93625 -16.3301 7.37007 15.6712 -9.52843 -13.879 84.4067 -78.0804 -266.557 -112.0062 5.10326 10.1333 -75.7763 47.5797 -291.169 0.0 76.719 0.0 18.425 -36.0497 94.2874 0.0 0.0 0.0 0.0 0.0 0.0 119.1948 5.71069 -10.6268 55.7666 41.9031 -45.0402 0.0 76.0006 0.0 -10.1495 -11.5065 -85.016 0.0 0.0 0.0 0.0 0.0 0.0 -89.5405 -70.6876 -79.9277 0.0 107.449 0.0 9.95686 14.405239 1.32674 0.0 -14.295736 0.0 61.5466 -63.485 66.7962 0.0 71.6058 0.0 20.7276 9.0449505 -4.64935 0.0 -27.816399 0.0 
  -0.327411003112793 0.3978459930419922 7.31739013671875 -166.454 73.1048 526.042 -4.39154 38.781 -4.28729 5.98596 -16.289 7.34303 15.7362 -9.65108 -13.9446 84.7348 -78.1086 -266.165 -112.0108 5.08719 10.1647 -75.8589 47.6507 -291.116 0.0 76.5099 0.0 18.3185 -36.1072 94.1384 0.0 0.0 0.0 0.0 0.0 0.0 119.1877 5.69949 -10.57 55.8 41.8515 -45.0528 0.0 75.9274 0.0 -10.2817 -11.6103 -85.3862 0.0 0.0 0.0 0.0 0.0 0.0 -89.4624 -70.755 -79.8471 0.0 107.434 0.0 10.3616 14.53184 1.31034 0.0 -13.95771 0.0 61.4847 -63.415 66.7873 0.0 71.5547 0.0 20.9543 8.938869 -4.50535 0.0 -27.5644 0.0 
  -0.32913200378417967 0.3983000183105469 7.3164300537109375 -166.38 73.1148 525.968 -4.43026 38.7847 -4.25715 6.0323 -16.2472 7.31042 15.838 -9.78479 -13.9886 84.79 -78.1234 -266.042 -111.9683 5.05489 10.0911 -76.0027 47.5681 -291.077 0.0 76.3044 0.0 18.1467 -36.103 93.7324 0.0 0.0 0.0 0.0 0.0 0.0 119.2021 5.68871 -10.5508 55.7921 41.8559 -45.0665 0.0 75.9164 0.0 -10.3531 -11.7968 -85.7157 0.0 0.0 0.0 0.0 0.0 0.0 -89.4176 -70.7721 -79.8043 0.0 107.447 0.0 10.5962 14.591962 1.33559 0.0 -14.037509 0.0 61.4807 -63.3954 66.7757 0.0 71.5506 0.0 21.0909 8.89215 -4.44602 0.0 -27.4497 0.0 
  -0.33002300262451173 0.3988959884643555 7.31541015625 -166.137 73.0926 525.748 -4.37606 38.781 -4.30757 6.05002 -16.21 7.3078 15.9449 -9.95043 -13.9896 85.0531 -78.1036 -265.738 -111.8208 4.9911 9.82177 -76.4603 47.246 -290.973 0.0 75.8541 0.0 17.9909 -35.8605 93.527 0.0 0.0 0.0 0.0 0.0 0.0 119.2305 5.66479 -10.5321 55.7547 41.8765 -45.0823 0.0 75.9515 0.0 -10.3137 -12.0181 -85.9906 0.0 0.0 0.0 0.0 0.0 0.0 -89.3756 -70.7268 -79.8608 0.0 107.459 0.0 10.3543 14.515589 1.39434 0.0 -14.147196 0.0 61.5144 -63.4196 66.7074 0.0 71.5381 0.0 21.1075 8.88002 -4.4114 0.0 -27.396801 0.0 
  -0.32812400817871096 0.40071399688720705 7.317020263671875 -165.638 73.0437 525.237 -4.22497 38.8253 -4.42956 6.04796 -16.2176 7.36287 16.1301 -10.1825 -13.9328 85.3526 -78.0516 -265.473 -111.4158 4.82917 9.278 -77.6233 46.4641 -290.916 0.0 74.7742 0.0 17.5475 -35.4024 92.433 0.0 0.0 0.0 0.0 0.0 0.0 119.2531 5.66796 -10.451 55.7228 41.8044 -45.2398 0.0 76.0183 0.0 -10.4282 -12.0044 -86.0781 0.0 0.0 0.0 0.0 0.0 0.0 -89.3296 -70.615 -80.1329 0.0 107.45 0.0 9.72577 14.440235 1.32408 0.0 -15.062429 0.0 61.4795 -63.4056 66.5407 0.0 71.4075 0.0 21.2038 8.87395 -4.30744 0.0 -27.2574 0.0 
  -0.3182320022583008 0.37751800537109376 7.30531982421875 -164.857 73.1777 525.206 -3.34 38.573 -5.40188 6.04633 -15.776 7.18382 16.2289 -10.5129 -13.8788 86.0711 -77.9375 -264.689 -111.4652 4.53333 9.0337 -78.3409 45.757 -291.247 0.0 73.7587 0.0 17.0289 -35.0825 91.257 0.0 0.0 0.0 0.0 0.0 0.0 119.5491 5.61281 -10.6131 55.0533 41.734 -45.2797 0.0 76.2202 0.0 -10.5227 -11.7938 -86.1612 0.0 0.0 0.0 0.0 0.0 0.0 -88.9583 -69.6713 -80.0719 0.0 107.609 0.0 9.05829 14.2299 1.06257 0.0 -15.31849 0.0 62.2435 -63.0854 68.4922 0.0 72.4585 0.0 22.4422 8.3302 -4.78864 0.0 -26.596699 0.0 
  -0.31317499160766604 0.37215499877929686 7.305280151367188 -164.142 72.8635 524.475 -3.1513 38.1218 -5.48972 6.26837 -15.4644 7.22097 16.3433 -10.7667 -13.8055 86.8846 -77.8333 -263.78 -111.3233 4.43594 8.70938 -79.1147 45.1611 -291.645 0.0 72.7174 0.0 16.7546 -34.9384 89.8961 0.0 0.0 0.0 0.0 0.0 0.0 119.587296 5.69689 -10.5648 54.709 41.6038 -45.4539 0.0 76.3874 0.0 -10.6575 -11.4691 -86.0864 0.0 0.0 0.0 0.0 0.0 0.0 -89.4907 -69.5603 -81.2456 0.0 107.782 0.0 8.12465 13.8286705 0.413667 0.0 -15.642107 0.0 62.6113 -63.2352 68.6092 0.0 72.4068 0.0 23.3312 8.20387 -4.23022 0.0 -26.0915 0.0 
  -0.3114419937133789 0.36819599151611326 7.309710083007812 -163.351 72.8027 523.645 -3.21725 38.0142 -5.32876 6.65696 -15.2639 7.23284 16.4728 -10.9542 -13.7073 87.6752 -77.7409 -262.953 -111.2759 4.33299 8.67179 -79.7297 45.0108 -291.705 0.0 71.5982 0.0 16.8985 -34.6765 89.5188 0.0 0.0 0.0 0.0 0.0 0.0 119.666 5.70713 -10.6175 54.2422 41.524 -45.521 0.0 76.5617 0.0 -10.7749 -11.1031 -86.2545 0.0 0.0 0.0 0.0 0.0 0.0 -89.2604 -69.5249 -81.5916 0.0 107.889 0.0 7.24514 13.44007 -0.283577 0.0 -15.805674 0.0 62.5917 -63.126 68.4657 0.0 72.2603 0.0 23.597 8.22216 -4.02003 0.0 -25.9175 0.0 
  -0.306343994140625 0.3662779998779297 7.314299926757813 -162.842 72.7608 523.131 -3.37753 37.9082 -5.08526 7.26634 -15.0683 7.17377 16.0319 -11.1149 -13.6493 87.9128 -77.5566 -263.153 -111.3256 4.27082 8.37611 -80.2816 44.7562 -291.446 0.0 70.4922 0.0 17.1675 -34.2573 89.8309 0.0 0.0 0.0 0.0 0.0 0.0 119.6585 5.64167 -10.7599 54.6913 42.2307 -46.3119 0.0 75.5614 0.0 -11.4762 -11.4855 -85.4952 0.0 0.0 0.0 0.0 0.0 0.0 -89.1146 -69.4085 -81.8346 0.0 107.882 0.0 6.57658 13.34547 -0.70223 0.0 -15.888863 0.0 62.445 -63.1313 68.173 0.0 72.1361 0.0 23.8089 8.2396 -3.84167 0.0 -25.7575 0.0 
  -0.29776599884033206 0.36408199310302736 7.318619995117188 -162.675 72.5896 522.909 -3.40829 37.5904 -5.0056 7.52254 -14.9349 7.14802 15.9679 -11.0986 -13.4346 87.7353 -77.4196 -263.667 -111.3505 4.25712 8.27654 -80.6215 44.8203 -290.964 0.0 69.2163 0.0 17.1821 -33.7749 90.2526 0.0 0.0 0.0 0.0 0.0 0.0 119.7238 5.69287 -11.0074 54.1219 42.3782 -46.3815 0.0 75.4718 0.0 -11.8164 -11.2711 -85.3248 0.0 0.0 0.0 0.0 0.0 0.0 -89.3859 -69.3064 -82.3137 0.0 107.82 0.0 6.33082 13.43756 -0.777056 0.0 -15.836059 0.0 62.5579 -63.2385 68.1742 0.0 72.0539 0.0 23.7661 8.31516 -3.70457 0.0 -25.7066 0.0 
